<mxfile host="app.diagrams.net" modified="2023-08-22T03:51:48.919Z" agent="Mozilla/5.0 (Macintosh; Intel Mac OS X 10_15_7) AppleWebKit/537.36 (KHTML, like Gecko) Chrome/115.0.0.0 Safari/537.36" version="21.6.6" etag="Z6iPa3-zOFKqx7Anm-G7" type="github">
  <diagram name="第 1 页" id="Ti0eWlWE8vFNMWwU7P1u">
    <mxGraphModel>
      <root>
        <mxCell id="0" />
        <mxCell id="1" parent="0" />
      </root>
    </mxGraphModel>
  </diagram>
</mxfile>
